<?xml version="1.0" standalone="no"?>
<!DOCTYPE svg PUBLIC "-//W3C//DTD SVG 20010904//EN"
 "http://www.w3.org/TR/2001/REC-SVG-20010904/DTD/svg10.dtd">
<svg version="1.0" xmlns="http://www.w3.org/2000/svg"
 width="700.000000pt" height="700.000000pt" viewBox="0 0 700.000000 700.000000"
 preserveAspectRatio="xMidYMid meet">
<metadata>
Created by potrace 1.14, written by Peter Selinger 2001-2017
</metadata>
<g transform="translate(0.000000,700.000000) scale(0.100000,-0.100000)"
fill="#000000" stroke="none">
<path d="M5827 6776 c-99 -92 28 -238 131 -151 38 32 48 74 28 114 -34 64
-110 82 -159 37z"/>
<path d="M2212 6563 c4 -21 33 -25 33 -3 0 8 -8 16 -18 18 -14 3 -18 -1 -15
-15z"/>
<path d="M1713 6385 c-149 -41 -250 -146 -282 -293 -16 -76 -16 -5108 0 -5184
23 -108 100 -213 190 -259 101 -51 24 -49 1876 -49 1237 0 1737 3 1775 11 151
32 265 146 297 297 16 76 16 5108 0 5184 -32 151 -146 265 -297 297 -38 8
-537 11 -1780 10 -1455 0 -1735 -3 -1779 -14z m3425 -129 c57 -52 90 -121 102
-212 7 -53 10 -856 8 -2439 l-3 -2360 -29 -63 c-37 -79 -114 -153 -188 -179
-51 -17 -128 -18 -1673 -18 l-1620 0 -62 29 c-37 17 -80 47 -103 72 l-40 44 2
2473 3 2473 30 59 c35 69 84 111 157 136 51 17 131 18 1715 19 l1663 0 38 -34z"/>
<path d="M1885 5988 c-3 -7 -4 -409 -3 -893 l3 -880 95 -3 c88 -2 96 -4 105
-25 l10 -22 1399 -3 c1029 -1 1402 1 1412 9 12 10 14 150 12 838 l-3 826 -22
10 c-21 9 -23 17 -23 82 l0 73 -1490 0 c-1183 0 -1492 -3 -1495 -12z m2925
-983 l0 -735 -1310 0 -1310 0 0 735 0 735 1310 0 1310 0 0 -735z"/>
<path d="M2215 3596 c-48 -21 -96 -67 -116 -111 -17 -36 -19 -72 -19 -398 0
-397 -2 -387 68 -460 60 -62 91 -67 449 -67 196 0 331 4 358 11 53 13 119 67
146 120 19 38 20 56 17 408 l-3 367 -28 42 c-15 23 -46 54 -69 69 l-42 28
-365 2 c-287 2 -372 0 -396 -11z m683 -121 c8 -18 12 -115 12 -306 0 -311 -4
-333 -62 -369 -31 -19 -50 -20 -326 -20 -183 0 -301 4 -313 10 -18 10 -19 24
-19 315 0 173 4 315 10 329 5 14 24 35 42 46 31 19 51 20 339 20 l306 0 11
-25z"/>
<path d="M2322 3128 c-18 -18 -14 -63 6 -81 16 -15 50 -17 274 -17 234 0 256
1 271 18 20 22 22 63 5 80 -17 17 -539 17 -556 0z"/>
<path d="M4015 3596 c-48 -21 -96 -67 -116 -111 -17 -36 -19 -72 -19 -398 0
-397 -2 -387 68 -460 61 -63 90 -67 452 -67 353 0 391 5 449 62 72 70 71 66
71 465 0 326 -2 362 -19 398 -20 45 -69 91 -118 112 -46 19 -724 18 -768 -1z
m683 -121 c8 -18 12 -115 12 -306 0 -311 -4 -333 -62 -369 -31 -19 -50 -20
-326 -20 -183 0 -301 4 -313 10 -18 10 -19 24 -19 315 0 173 4 315 10 329 5
14 24 35 42 46 31 19 51 20 339 20 l306 0 11 -25z"/>
<path d="M4356 3358 c-12 -17 -16 -48 -16 -120 l0 -98 -103 0 c-111 0 -127 -6
-127 -50 0 -48 26 -60 133 -60 l97 0 0 -95 c0 -88 2 -98 25 -120 13 -14 29
-25 35 -25 6 0 22 11 35 25 23 22 25 32 25 120 l0 95 98 0 c108 0 132 11 132
61 0 43 -17 49 -127 49 l-103 0 0 98 c0 112 -13 142 -60 142 -18 0 -34 -8 -44
-22z"/>
<path d="M2205 2173 c-44 -23 -84 -63 -106 -105 -18 -35 -19 -63 -19 -398 0
-335 1 -363 19 -398 25 -48 66 -87 113 -106 31 -14 94 -16 388 -16 382 0 393
1 454 58 64 60 66 70 66 460 0 297 -2 359 -16 390 -19 47 -58 88 -106 113 -35
18 -62 19 -400 19 -311 -1 -367 -3 -393 -17z m696 -120 c6 -16 9 -138 7 -320
l-3 -293 -38 -37 -37 -38 -293 -3 c-182 -2 -304 1 -320 7 l-27 11 0 316 0 316
34 34 34 34 316 0 316 0 11 -27z"/>
<path d="M2392 1878 c-28 -28 -13 -62 60 -135 l72 -73 -72 -73 c-73 -73 -88
-107 -60 -135 28 -28 62 -13 135 60 l73 72 73 -72 c73 -73 107 -88 135 -60 28
28 13 62 -60 135 l-72 73 72 73 c73 73 88 107 60 135 -28 28 -62 13 -135 -60
l-73 -72 -73 72 c-73 73 -107 88 -135 60z"/>
<path d="M4005 2173 c-47 -24 -86 -64 -106 -108 -17 -37 -19 -71 -19 -395 0
-392 2 -402 66 -462 61 -57 72 -58 454 -58 382 0 393 1 454 58 64 60 66 70 66
465 0 333 -1 360 -19 395 -22 43 -63 83 -108 106 -28 14 -80 16 -395 16 -311
-1 -367 -3 -393 -17z m695 -119 c6 -14 10 -148 10 -307 0 -410 23 -387 -387
-387 -193 0 -290 4 -308 12 l-25 11 0 315 0 314 34 34 34 34 316 0 316 0 10
-26z"/>
<path d="M4127 1862 c-20 -22 -22 -63 -5 -80 17 -17 539 -17 556 0 18 18 14
63 -6 81 -16 15 -50 17 -274 17 -234 0 -256 -1 -271 -18z"/>
<path d="M4140 1567 c-35 -17 -40 -69 -8 -91 19 -14 59 -16 268 -16 277 0 294
4 288 63 -5 53 -25 57 -288 57 -169 0 -242 -4 -260 -13z"/>
<path d="M555 5200 c-24 -27 -13 -68 22 -76 20 -5 31 -2 45 16 23 28 23 35 -2
60 -25 25 -42 25 -65 0z"/>
<path d="M5893 4875 c-43 -19 -73 -69 -73 -124 0 -37 6 -49 39 -82 33 -33 45
-39 82 -39 77 0 139 59 139 132 0 55 -75 128 -130 128 -14 -1 -40 -7 -57 -15z"/>
<path d="M729 2621 c-35 -36 -37 -61 -6 -97 46 -54 130 -23 130 47 0 23 -8 39
-27 56 -36 31 -61 29 -97 -6z"/>
</g>
</svg>
